<?xml version="1.0" encoding="UTF-8" standalone="no"?>
<!-- Generator: Adobe Illustrator 22.0.1, SVG Export Plug-In . SVG Version: 6.00 Build 0)  -->

<svg
   xmlns:dc="http://purl.org/dc/elements/1.1/"
   xmlns:cc="http://creativecommons.org/ns#"
   xmlns:rdf="http://www.w3.org/1999/02/22-rdf-syntax-ns#"
   xmlns:svg="http://www.w3.org/2000/svg"
   xmlns="http://www.w3.org/2000/svg"
   xmlns:xlink="http://www.w3.org/1999/xlink"
   xmlns:sodipodi="http://sodipodi.sourceforge.net/DTD/sodipodi-0.dtd"
   xmlns:inkscape="http://www.inkscape.org/namespaces/inkscape"
   version="1.1"
   id="clock_layer"
   inkscape:version="0.92.3 (2405546, 2018-03-11)"
   sodipodi:docname="clock.svg"
   x="0px"
   y="0px"
   viewBox="0 0 1024 600"
   style="enable-background:new 0 0 1024 600;"
   xml:space="preserve"><metadata
   id="metadata8926"><rdf:RDF><cc:Work
       rdf:about=""><dc:format>image/svg+xml</dc:format><dc:type
         rdf:resource="http://purl.org/dc/dcmitype/StillImage" /><dc:title></dc:title></cc:Work></rdf:RDF></metadata><defs
   id="defs8924" /><sodipodi:namedview
   pagecolor="#ffffff"
   bordercolor="#666666"
   borderopacity="1"
   objecttolerance="10"
   gridtolerance="10"
   guidetolerance="10"
   inkscape:pageopacity="0"
   inkscape:pageshadow="2"
   inkscape:window-width="3000"
   inkscape:window-height="1890"
   id="namedview8922"
   showgrid="false"
   inkscape:zoom="2.6810991"
   inkscape:cx="568.60809"
   inkscape:cy="199.90429"
   inkscape:window-x="-12"
   inkscape:window-y="-12"
   inkscape:window-maximized="1"
   inkscape:current-layer="clock_layer" />
<pattern
   y="600"
   width="5"
   height="5"
   patternUnits="userSpaceOnUse"
   id="rect57_1_"
   viewBox="0 -5 5 5"
   style="overflow:visible;">
	<g
   id="g8843">
		<rect
   y="-5"
   style="fill:none;"
   width="5"
   height="5"
   id="rect8812" />
		<g
   id="g8841">
			<rect
   y="-5"
   style="fill:none;"
   width="5"
   height="5"
   id="rect8814" />
			<g
   id="g8839">
				<rect
   y="-5"
   style="fill:none;"
   width="5"
   height="5"
   id="rect8816" />
				<rect
   id="rect43_2_"
   y="-5"
   style="fill:none;"
   width="5"
   height="5" />
				<g
   id="g8836">
					<g
   id="g8834">
						<g
   id="g8832">
							<defs
   id="defs8820">
								<path
   id="SVGID_1_"
   d="M4.9-3C4.9-3,4.8-3,4.9-3H4.3v-1.7c0-0.1,0-0.1-0.1-0.1H0.8c-0.1,0-0.1,0-0.1,0.1V-3H0.2          c0,0-0.1,0-0.1,0.1l0,0c0,0,0,0,0,0.1l0,0l2.3,2.2c0.1,0.1,0.1,0.1,0.2,0l1.1-1.1l0.1-0.1v0.2c0,0.1,0,0.1,0.1,0.1h0.3          c0.1,0,0.1,0,0.1-0.1v-0.7v-0.1c0.2-0.1,0.3-0.3,0.4-0.4v-0.1C4.8-2.9,4.9-2.9,4.9-3z" />
							</defs>
							<clipPath
   id="SVGID_2_">
								<use
   xlink:href="#SVGID_1_"
   style="overflow:visible;"
   id="use8822" />
							</clipPath>
							<g
   id="g47_2_"
   style="clip-path:url(#SVGID_2_);"
   clip-path="url(#SVGID_2_)">
								
									<radialGradient
   id="rect45_3_"
   cx="-83566.7813"
   cy="-97872.6094"
   r="4.43"
   gradientTransform="matrix(0.56 0 0 0.56 46707.2891 54684.4805)"
   gradientUnits="userSpaceOnUse">
									<stop
   offset="0"
   style="stop-color:#17426C"
   id="stop8825" />
									<stop
   offset="1"
   style="stop-color:#050F1A"
   id="stop8827" />
								</radialGradient>
								<rect
   id="rect45_2_"
   y="-5"
   style="fill:url(#rect45_3_);"
   width="4.9"
   height="4.9" />
							</g>
						</g>
					</g>
				</g>
				<path
   id="path367_2_"
   style="fill:#19476D;"
   d="M3.6-3.2c0.1,0,0.2,0.1,0.2,0.2l0,0c0,0.1-0.1,0.2-0.2,0.2l0,0      C3.5-2.8,3.4-2.9,3.4-3l0,0l0,0C3.4-3.1,3.5-3.2,3.6-3.2z M1.4-3.2c0.1,0,0.2,0.1,0.2,0.2l0,0l0,0c0,0.1-0.1,0.2-0.2,0.2      S1.2-2.9,1.2-3S1.3-3.2,1.4-3.2L1.4-3.2z M2.3-4.1L1.6-3.4C1.4-3.5,1.1-3.4,1-3.2s0,0.5,0.2,0.6c0.1,0.1,0.3,0.1,0.5,0      c0.1,0,0.2-0.1,0.2-0.2c0-0.1,0-0.3,0-0.4l0.4-0.5v1.5C2.1-2.1,2-1.9,2-1.8s0,0.3,0.1,0.4c0.2,0.2,0.5,0.2,0.7,0l0,0l0,0      C2.9-1.4,3-1.6,3-1.7C3-1.9,2.9-2,2.7-2.1c0-0.4,0-1.5,0-1.5l0.4,0.5c0,0.1,0.1,0.4,0.3,0.5s0.5,0,0.6-0.2      c0.1-0.1,0.1-0.3,0-0.4C3.9-3.4,3.7-3.5,3.4-3.4L2.7-4.1v-0.6H2.3V-4.1z M2.7-1.7c0,0.1-0.1,0.2-0.2,0.2c-0.1,0-0.2-0.1-0.2-0.2      l0,0c0-0.1,0.1-0.2,0.2-0.2C2.6-1.9,2.7-1.8,2.7-1.7z" />
			</g>
		</g>
	</g>
</pattern>
<g
   id="BG"
   inkscape:label="#BG1">
	<rect
   id="rect55"
   y="-0.5"
   width="1024"
   height="600.5" />
	<pattern
   id="rect57_2_"
   xlink:href="#rect57_1_"
   patternTransform="matrix(1 0 0 -1 -3 -33192)">
	</pattern>
	<rect
   id="rect57"
   y="-0.5"
   style="fill:url(#rect57_2_);"
   width="1024"
   height="600" />
	
		<radialGradient
   id="rect40_2_"
   cx="422.59"
   cy="1980.11"
   r="468.26"
   gradientTransform="matrix(1 0 0 0.5 0 -695.07)"
   gradientUnits="userSpaceOnUse">
		<stop
   offset="0"
   style="stop-color:#000000;stop-opacity:0"
   id="stop8849" />
		<stop
   offset="0.191"
   style="stop-color:#000000;stop-opacity:0"
   id="stop8851" />
		<stop
   offset="0.4815"
   style="stop-color:#000000;stop-opacity:0"
   id="stop8853" />
		<stop
   offset="1"
   style="stop-color:#000000"
   id="stop8855" />
	</radialGradient>
	<rect
   id="rect40_1_"
   style="fill:url(#rect40_2_);"
   width="1024"
   height="600" />
</g>
<text
   id="sensor.clock_time"
   inkscape:label="#text92"
   transform="matrix(0.8191 0 0 1 65.1748 383.8574)"
   style="fill:#00ADEE;enable-background:new    ; font-family:'Helvetica'; font-size:290.3859px;">10:36</text>

<text
   id="sensor.clock_day"
   transform="matrix(1.2003 0 0 1 18.3418 520.5859)"
   style="fill:#808080; font-family:'Helvetica'; font-size:47px;">NedNesDay</text>

<text
   id="sensor.clock_date"
   inkscape:label="#text99"
   transform="matrix(1.2003 0 0 1 18.3418 583.3311)"
   style="fill:#808080;enable-background:new    ; font-family:'Helvetica'; font-size:47px;">November 33</text>

<g
   id="right_side_layout">
	
		<line
   id="edge_doorbell_top"
   style="fill:none;stroke:#FFFFFF;stroke-miterlimit:10;"
   x1="819.6"
   y1="121.1"
   x2="1009.6"
   y2="121.1" />
	
		<line
   id="edge_snooze_bottom"
   style="fill:none;stroke:#FFFFFF;stroke-miterlimit:10;"
   x1="819.6"
   y1="115.1"
   x2="1009.6"
   y2="115.1" />
	<line
   id="edge_snooze_top"
   style="fill:none;stroke:#FFFFFF;stroke-miterlimit:10;"
   x1="819.6"
   y1="8.1"
   x2="1009.6"
   y2="8.1" />
	
		<line
   id="edge_doorbell_bottom"
   style="fill:none;stroke:#FFFFFF;stroke-miterlimit:10;"
   x1="819.6"
   y1="228.1"
   x2="1009.6"
   y2="228.1" />
	<line
   id="edge_doppler_top"
   style="fill:none;stroke:#FFFFFF;stroke-miterlimit:10;"
   x1="819.6"
   y1="234"
   x2="1009.6"
   y2="234" />
	
		<line
   id="edge_doppler_bottom"
   style="fill:none;stroke:#FFFFFF;stroke-miterlimit:10;"
   x1="819.6"
   y1="341"
   x2="1009.6"
   y2="341" />
	<line
   id="edge_radio_top"
   style="fill:none;stroke:#FFFFFF;stroke-miterlimit:10;"
   x1="818.7"
   y1="469"
   x2="1008.7"
   y2="469" />
	<line
   id="edge_radio_bottom"
   style="fill:none;stroke:#FFFFFF;stroke-miterlimit:10;"
   x1="818.7"
   y1="556"
   x2="1008.7"
   y2="556" />
</g>
<text
   id="sensor.clock_am_pm"
   transform="matrix(0.8191 0 0 1 692.0439 150.0801)"
   style="fill:#00ADEE; font-family:'Helvetica'; font-size:50px;">XX</text>

<rect
   id="camera.kids_room_camera"
   x="819.6"
   y="122.1"
   inkscape:label="#rect140"
   style="fill:#333333;"
   width="190"
   height="105">
</rect>
<rect
   id="sensor.dark_sky_minutely_summary_icon"
   x="23.3"
   y="15"
   inkscape:label="#rect395"
   style="fill:#666666;"
   width="70.5"
   height="62.2">
</rect>
<rect
   id="input_boolean.school_mode"
   x="819.6"
   y="235"
   inkscape:label="#rect140"
   style="fill:#333333;"
   width="190"
   height="105">
</rect>




<rect
   id="media_player.alarm_clock"
   x="818.6"
   y="470.2"
   inkscape:label="#rect140"
   style="fill:#333333;"
   width="190"
   height="83.8">
</rect>
<rect
   id="input_boolean.clock_snooze"
   x="819.59998"
   y="10.100001"
   inkscape:label="#rect140"
   style="fill:#333333"
   width="190"
   height="105">
</rect>
<text
   id="sensor.dark_sky_minutely_summary"
   transform="matrix(1 0 0 1 188.8361 58.1703)"
   style="fill:#808080; font-family:'Helvetica'; font-size:48px;">Hell Fire for the next 2 hours</text>

<text
   id="sensor.dark_sky_temperature"
   transform="matrix(1 0 0 1 112.8211 58.1696)"
   style="fill:#808080; font-family:'Helvetica'; font-size:48px;">72</text>


<line
   id="edge_snooze_bottom_1_"
   style="fill:none;stroke:#FFFFFF;stroke-miterlimit:10;"
   x1="820.1"
   y1="454.6"
   x2="1010.1"
   y2="454.6" />
<line
   id="edge_snooze_top_1_"
   style="fill:none;stroke:#FFFFFF;stroke-miterlimit:10;"
   x1="820.1"
   y1="347.6"
   x2="1010.1"
   y2="347.6" />
<text
   id="sensor.clock_stacey_alarm_time"
   transform="matrix(1 0 0 1 839.0565 420.321)"
   style="fill:#00ADEE; font-family:'Helvetica'; font-size:59.6445px;">00:00</text>

<rect
   id="floorplan.clock_button"
   x="820.1"
   y="348.6"
   inkscape:label="#rect140"
   style="opacity:2.000000e-02;fill:#333333;"
   width="190"
   height="105">
</rect>
</svg>